<?xml version="1.0" encoding="UTF-8" standalone="no"?>
<svg xmlns="http://www.w3.org/2000/svg" viewBox="0 0 24 24" width="24" height="24">
  <rect x="0" y="0" width="24" height="24" fill="white"/>
  <!-- QR code simplified pattern -->
  <rect x="2" y="2" width="9" height="9" fill="black"/>
  <rect x="3" y="3" width="7" height="7" fill="white"/>
  <rect x="4" y="4" width="5" height="5" fill="black"/>
  
  <rect x="13" y="2" width="9" height="9" fill="black"/>
  <rect x="14" y="3" width="7" height="7" fill="white"/>
  <rect x="15" y="4" width="5" height="5" fill="black"/>
  
  <rect x="2" y="13" width="9" height="9" fill="black"/>
  <rect x="3" y="14" width="7" height="7" fill="white"/>
  <rect x="4" y="15" width="5" height="5" fill="black"/>
  
  <rect x="13" y="13" width="3" height="3" fill="black"/>
  <rect x="16" y="13" width="3" height="3" fill="black"/>
  <rect x="19" y="13" width="3" height="3" fill="black"/>
  <rect x="13" y="16" width="3" height="3" fill="black"/>
  <rect x="19" y="16" width="3" height="3" fill="black"/>
  <rect x="13" y="19" width="3" height="3" fill="black"/>
  <rect x="16" y="19" width="3" height="3" fill="black"/>
  <rect x="19" y="19" width="3" height="3" fill="black"/>
</svg>